<?xml version="1.0" standalone="no"?>
<!DOCTYPE svg PUBLIC "-//W3C//DTD SVG 20010904//EN"
 "http://www.w3.org/TR/2001/REC-SVG-20010904/DTD/svg10.dtd">
<svg version="1.0" xmlns="http://www.w3.org/2000/svg"
 width="5000.000000pt" height="5000.000000pt" viewBox="0 0 5000.000000 5000.000000"
 preserveAspectRatio="xMidYMid meet">

<g transform="translate(0.000000,5000.000000) scale(0.100000,-0.100000)"
stroke="none">
<path fill="url(#grad1)" d="M11057 46910 l-109 -5 -33 -36 c-32 -35 -33 -41 -40 -145 -5 -60 -5
-215 -2 -344 8 -302 26 -410 102 -615 64 -173 86 -304 110 -650 19 -270 33
-346 76 -423 86 -154 100 -185 118 -263 11 -46 25 -136 31 -201 9 -106 44
-259 72 -312 6 -11 28 -45 50 -75 59 -78 84 -149 102 -288 18 -142 39 -200
109 -298 68 -95 89 -147 126 -310 18 -77 34 -148 37 -157 3 -9 32 -47 64 -83
77 -84 92 -116 124 -260 30 -131 48 -169 102 -210 57 -43 89 -105 125 -238
l33 -122 67 -70 c73 -77 87 -99 125 -207 40 -111 72 -168 121 -215 27 -27 56
-70 74 -111 57 -128 70 -149 138 -218 63 -64 71 -78 115 -191 45 -116 50 -124
111 -177 51 -46 71 -72 104 -141 32 -67 55 -98 111 -152 46 -44 80 -87 97
-123 54 -112 104 -190 157 -240 36 -34 67 -77 90 -124 23 -48 51 -87 83 -115
93 -83 113 -105 140 -159 18 -36 53 -78 105 -125 46 -41 91 -93 110 -126 18
-31 66 -92 108 -136 42 -44 86 -96 100 -115 61 -90 133 -180 184 -229 31 -30
76 -85 101 -122 26 -40 67 -84 102 -111 37 -28 76 -71 108 -120 36 -54 67 -88
111 -119 34 -24 77 -65 95 -91 61 -88 81 -109 139 -148 40 -27 72 -60 104
-110 29 -44 62 -80 89 -96 60 -37 104 -81 143 -141 24 -37 56 -67 107 -100 51
-35 84 -66 115 -111 31 -44 64 -76 113 -108 37 -25 81 -61 96 -80 72 -88 99
-116 127 -131 50 -26 105 -75 143 -126 21 -28 68 -70 112 -99 42 -28 110 -83
151 -123 82 -78 139 -124 215 -175 28 -18 77 -62 110 -97 33 -34 89 -80 125
-101 44 -27 83 -61 122 -109 41 -50 73 -78 117 -102 62 -33 87 -55 143 -131
24 -32 57 -57 113 -87 44 -24 93 -58 109 -75 15 -18 38 -45 51 -59 13 -14 72
-54 131 -89 60 -36 142 -96 185 -135 42 -38 107 -86 144 -105 64 -33 88 -54
168 -145 20 -24 66 -56 109 -78 83 -42 100 -56 145 -113 25 -32 60 -54 157
-102 103 -51 137 -74 188 -126 45 -45 89 -76 156 -111 77 -39 100 -57 137
-105 49 -64 68 -78 140 -105 78 -29 149 -72 216 -132 39 -34 97 -72 157 -100
68 -33 107 -58 136 -91 76 -84 96 -100 144 -118 106 -38 195 -86 245 -132 71
-66 101 -86 182 -118 56 -22 85 -43 142 -100 71 -70 76 -73 195 -115 120 -42
125 -44 197 -116 81 -80 97 -91 181 -118 72 -23 161 -74 233 -135 34 -28 85
-58 120 -71 108 -39 161 -70 220 -130 56 -57 62 -60 190 -100 132 -42 132 -42
199 -110 79 -80 103 -94 217 -124 130 -35 173 -57 217 -110 53 -65 93 -88 218
-124 135 -39 158 -51 226 -116 69 -64 92 -77 210 -110 133 -37 159 -50 215
-104 71 -68 108 -87 231 -120 148 -39 161 -45 219 -100 77 -72 133 -101 253
-126 143 -31 154 -36 226 -104 80 -77 108 -90 251 -116 148 -28 172 -38 260
-108 39 -31 77 -57 85 -57 8 0 60 7 115 15 89 13 126 24 200 56 111 49 467 99
708 99 119 0 290 38 372 82 147 79 174 89 275 108 58 10 168 23 245 29 217 17
321 44 424 109 47 30 101 60 119 67 36 16 234 48 382 63 111 12 169 35 248 96
87 68 180 98 377 122 149 18 204 38 280 104 70 61 111 76 320 120 102 22 197
46 213 54 15 8 50 35 78 59 71 64 118 84 251 108 146 26 182 41 262 112 66 59
116 81 261 113 92 20 159 53 226 110 59 50 126 83 237 113 98 27 155 56 232
118 66 52 122 80 229 113 76 23 155 70 201 120 39 42 79 61 204 100 97 30 109
37 165 92 92 91 112 102 236 143 112 36 117 39 180 103 63 65 95 85 210 135
31 13 85 50 120 82 67 59 156 109 247 139 43 14 64 31 119 91 54 61 80 81 151
116 52 26 109 64 147 99 69 64 101 85 224 145 71 35 98 54 144 108 42 47 75
74 125 98 66 33 110 71 166 143 16 20 59 52 97 72 38 20 107 70 153 112 47 43
125 101 173 131 54 33 119 85 164 131 48 49 96 87 134 105 32 17 71 45 85 64
59 77 105 120 166 156 47 28 75 53 103 94 21 30 57 69 80 86 23 16 61 44 84
60 24 17 60 56 80 87 26 39 56 68 102 96 35 23 79 60 98 83 72 90 103 121 144
145 46 27 79 62 130 136 17 24 58 62 90 84 36 24 80 67 114 112 31 41 82 92
117 117 37 27 78 68 103 104 22 33 57 73 77 88 77 59 118 100 150 150 18 29
50 65 70 80 78 60 114 98 148 154 25 40 55 71 97 101 61 42 98 84 148 168 14
23 48 57 77 76 56 37 88 74 121 139 20 40 90 113 128 133 10 5 41 47 68 93 27
45 80 114 116 153 66 70 131 159 165 226 10 19 53 69 95 111 50 48 89 97 108
135 30 59 64 97 134 148 24 18 51 55 79 109 29 56 62 100 105 142 51 49 73 81
119 175 47 96 68 126 125 181 50 48 79 88 108 146 41 80 68 113 139 170 26 20
46 48 58 80 40 106 96 203 150 260 40 41 71 88 105 159 42 86 59 109 113 157
61 54 67 62 102 159 48 132 75 178 130 224 33 26 55 58 81 113 70 150 78 164
125 209 49 48 94 133 123 233 22 72 50 114 128 190 37 36 68 73 68 81 0 8 16
66 36 129 34 108 39 117 94 171 69 67 94 101 108 148 6 19 22 74 37 121 27 91
50 129 101 172 42 36 87 124 118 237 28 100 49 139 111 205 46 49 87 136 110
235 26 108 47 151 104 214 74 82 88 113 127 286 22 97 35 123 99 190 70 75 82
101 110 244 27 144 46 186 120 266 58 63 58 63 104 268 34 149 63 222 115 285
60 73 93 159 116 301 23 143 47 204 109 272 22 22 44 51 50 62 17 31 47 170
71 322 25 154 39 192 103 274 55 70 63 91 80 220 l14 99 -37 38 -37 39 -89 1
c-455 3 -29906 3 -29987 -1z"/>
<path fill="url(#grad2)" d="M24840 26211 c-107 -40 -138 -57 -197 -113 -29 -27 -79 -60 -110 -74
-125 -54 -166 -79 -206 -126 -54 -63 -82 -80 -213 -128 -102 -38 -113 -45
-174 -108 -53 -56 -83 -77 -161 -114 -71 -34 -112 -61 -156 -105 -58 -57 -133
-101 -248 -144 -43 -16 -67 -34 -112 -86 -48 -54 -73 -73 -143 -107 -65 -31
-101 -57 -153 -109 -59 -59 -85 -77 -191 -126 -106 -51 -129 -66 -171 -115
-37 -42 -70 -67 -136 -101 -48 -25 -99 -57 -112 -73 -14 -15 -41 -45 -60 -67
-21 -24 -70 -58 -122 -85 -83 -44 -107 -60 -232 -163 -32 -26 -89 -63 -128
-81 -54 -26 -84 -49 -131 -102 -34 -38 -79 -78 -100 -89 -92 -47 -134 -79
-173 -130 -23 -31 -62 -66 -89 -81 -103 -59 -150 -92 -222 -156 -41 -37 -112
-88 -158 -114 -46 -26 -94 -59 -107 -73 -12 -14 -39 -45 -59 -67 -20 -23 -68
-58 -106 -78 -45 -24 -83 -53 -107 -83 -66 -81 -86 -99 -160 -142 -52 -30 -85
-58 -118 -101 -32 -42 -67 -72 -116 -101 -39 -23 -109 -77 -156 -120 -47 -44
-129 -108 -182 -144 -54 -36 -121 -92 -152 -128 -36 -39 -79 -75 -117 -95 -57
-31 -82 -54 -145 -135 -15 -20 -59 -55 -98 -78 -55 -32 -81 -56 -117 -106 -36
-49 -63 -74 -114 -104 -37 -22 -82 -58 -100 -80 -66 -82 -107 -125 -135 -139
-55 -28 -94 -64 -136 -123 -29 -42 -62 -73 -108 -103 -37 -23 -84 -64 -105
-90 -56 -69 -82 -93 -153 -144 -35 -24 -83 -70 -108 -101 -25 -32 -63 -70 -86
-85 -22 -15 -93 -78 -156 -140 -64 -62 -215 -209 -336 -326 -406 -393 -883
-878 -997 -1015 -23 -29 -71 -78 -106 -109 -34 -31 -83 -85 -108 -120 -25 -36
-66 -78 -89 -94 -45 -31 -91 -83 -138 -157 -15 -23 -50 -60 -79 -81 -64 -48
-85 -71 -131 -144 -24 -37 -55 -70 -94 -96 -55 -38 -71 -56 -136 -158 -14 -23
-54 -61 -88 -85 -47 -33 -73 -62 -108 -118 -32 -51 -65 -89 -106 -121 -33 -25
-74 -68 -92 -96 -70 -107 -84 -125 -122 -152 -41 -29 -53 -44 -133 -166 -29
-44 -80 -109 -114 -145 -33 -37 -90 -109 -125 -162 -39 -59 -85 -113 -118
-140 -36 -29 -67 -67 -93 -114 -38 -68 -48 -80 -142 -158 -28 -24 -59 -64 -82
-108 -26 -49 -56 -86 -99 -124 -41 -36 -74 -77 -95 -117 -54 -102 -95 -162
-159 -233 -34 -37 -80 -103 -102 -146 -39 -75 -59 -98 -142 -161 -22 -18 -50
-58 -78 -114 -34 -66 -57 -98 -101 -135 -48 -42 -65 -68 -117 -173 -50 -102
-72 -135 -128 -192 -51 -51 -80 -92 -111 -156 -36 -74 -52 -94 -105 -136 -58
-46 -66 -56 -101 -143 -51 -124 -69 -153 -132 -219 -35 -37 -70 -88 -103 -155
-40 -81 -62 -112 -118 -165 -62 -59 -70 -72 -97 -150 -42 -124 -61 -157 -135
-235 -37 -38 -75 -90 -85 -115 -47 -113 -73 -159 -122 -210 -53 -56 -83 -113
-124 -234 -19 -59 -34 -80 -105 -155 -71 -75 -85 -96 -99 -147 -46 -162 -58
-186 -138 -271 -74 -80 -78 -86 -109 -185 -40 -131 -60 -171 -119 -234 -57
-60 -80 -104 -110 -204 -28 -96 -52 -143 -104 -205 -62 -73 -81 -110 -114
-215 -42 -134 -53 -157 -112 -230 -62 -76 -92 -138 -120 -252 -28 -108 -53
-163 -99 -218 -73 -87 -91 -124 -122 -251 -39 -161 -44 -174 -104 -239 -79
-86 -92 -114 -115 -245 -25 -142 -54 -211 -116 -277 -57 -61 -65 -80 -104
-258 -45 -199 -60 -239 -127 -328 -73 -96 -88 -137 -107 -283 -18 -139 -44
-213 -103 -297 -81 -114 -104 -183 -128 -374 -18 -147 -39 -213 -96 -292 -74
-103 -113 -220 -124 -371 -14 -185 -51 -312 -122 -412 -61 -86 -79 -151 -98
-348 -28 -292 -55 -396 -134 -520 -17 -27 -42 -84 -55 -125 -23 -74 -26 -100
-46 -390 -17 -242 -41 -347 -116 -506 -72 -154 -83 -212 -99 -534 -23 -475
-44 -635 -106 -825 -105 -318 -115 -405 -124 -1090 -4 -225 -10 -543 -15 -705
-7 -279 -7 -298 12 -355 25 -76 41 -107 78 -149 l30 -34 16090 2 c16076 1
16089 1 16105 21 23 30 51 84 70 140 16 43 18 83 16 285 -3 328 -23 484 -88
659 -57 156 -74 212 -89 296 -17 97 -43 386 -45 510 -2 119 -34 358 -55 415
-9 25 -34 77 -54 115 -69 127 -102 290 -115 575 -10 194 -31 278 -115 445 -79
158 -88 198 -114 480 -18 186 -37 253 -108 371 -65 109 -85 169 -103 316 -42
344 -47 362 -111 444 -83 107 -93 136 -129 401 -27 188 -37 219 -110 313 -24
30 -48 65 -54 77 -17 34 -48 177 -66 308 -18 131 -43 198 -95 255 -69 76 -80
103 -106 242 -27 147 -58 268 -81 312 -8 16 -34 52 -57 80 -58 71 -82 133
-100 261 -25 166 -34 188 -122 288 -46 52 -73 119 -100 252 -28 137 -71 243
-120 300 -65 73 -91 134 -118 277 -14 70 -30 137 -36 149 -7 12 -38 50 -70 84
-32 34 -63 72 -70 84 -6 12 -25 81 -41 152 -16 72 -34 140 -40 152 -7 12 -38
49 -69 83 -68 71 -81 99 -110 231 -26 122 -49 170 -106 225 -64 60 -88 108
-117 224 -35 141 -47 164 -120 242 -68 73 -67 70 -132 295 -13 47 -29 72 -90
136 -65 70 -76 88 -98 157 -14 44 -28 95 -32 114 -12 56 -40 103 -88 147 -73
68 -93 102 -136 238 -40 128 -42 132 -102 190 -61 59 -95 113 -119 190 -22 70
-69 153 -115 205 -50 57 -69 89 -96 168 -28 82 -63 135 -118 181 -55 46 -82
96 -126 231 -25 78 -33 90 -96 151 -57 57 -77 85 -123 180 -31 65 -75 138
-102 169 -65 76 -87 112 -124 208 -30 74 -40 90 -102 144 -60 54 -74 74 -122
172 -35 74 -74 137 -116 186 -39 47 -79 109 -105 165 -36 78 -52 99 -112 152
-58 52 -77 77 -112 148 -25 54 -62 108 -94 143 -70 75 -94 110 -143 213 -34
70 -54 96 -107 143 -52 46 -74 74 -101 132 -22 46 -51 88 -77 111 -92 83 -116
112 -159 193 -25 47 -75 118 -112 159 -39 43 -88 113 -115 164 -36 68 -60 100
-101 133 -65 53 -81 73 -115 140 -27 54 -62 93 -140 157 -27 22 -60 63 -78 97
-30 56 -121 160 -140 160 -5 0 -42 51 -82 113 -41 62 -107 149 -149 193 -41
44 -94 112 -117 151 -28 50 -58 85 -97 115 -37 28 -70 66 -96 108 -46 78 -68
102 -133 149 -33 24 -65 61 -95 111 -35 58 -60 85 -108 119 -35 24 -75 62 -89
85 -63 100 -78 116 -133 155 -39 28 -73 63 -104 110 -25 38 -67 87 -93 108
-66 53 -102 91 -148 157 -21 32 -61 73 -88 93 -26 20 -67 61 -89 92 -23 31
-80 95 -127 142 -47 48 -147 151 -221 229 -187 197 -598 608 -769 770 -79 74
-182 174 -229 221 -48 47 -112 104 -143 126 -30 22 -73 64 -95 93 -21 29 -70
74 -109 101 -38 27 -95 80 -125 117 -34 40 -84 86 -127 115 -51 33 -84 64
-112 105 -37 55 -66 79 -154 132 -21 12 -55 48 -76 79 -41 59 -74 89 -153 134
-29 17 -63 50 -92 92 -36 49 -63 74 -114 104 -65 38 -137 105 -161 149 -6 12
-44 40 -84 63 -39 23 -103 72 -142 109 -38 37 -119 101 -180 143 -60 41 -135
102 -165 134 -30 32 -86 77 -125 99 -50 29 -85 59 -126 109 -43 54 -74 80
-129 110 -69 38 -90 57 -153 139 -17 22 -55 50 -98 71 -44 23 -97 62 -142 105
-40 39 -88 78 -107 88 -108 54 -190 111 -246 171 -45 47 -86 78 -139 105 -47
24 -87 53 -103 74 -65 84 -89 105 -174 148 -64 34 -100 60 -130 95 -32 38 -67
62 -171 115 -83 44 -141 80 -161 103 -65 75 -102 104 -173 138 -40 19 -86 49
-102 66 -16 18 -45 50 -64 72 -26 30 -58 50 -116 74 -87 36 -159 83 -229 148
-24 23 -85 62 -137 88 -77 38 -104 58 -154 114 -53 60 -70 73 -140 101 -96 38
-160 77 -223 137 -29 26 -90 64 -153 95 -80 38 -114 60 -138 91 -40 50 -98
107 -110 107 -5 0 -56 19 -114 41 -91 36 -114 50 -173 105 -94 89 -147 111
-285 117 -102 5 -115 3 -185 -22z"/>
</g>
  <defs>
  <linearGradient id="grad1" gradientTransform="rotate(90)">
    <stop offset="20%" stop-color="#91DAFF" />
    <stop offset="90%" stop-color="#13B0FF" />
    <!-- <stop offset="100%" stop-color="#fe7b6b" /> -->
  </linearGradient>

  <linearGradient id="grad2" gradientTransform="rotate(90)">
    <stop offset="0%" stop-color="#fe7b6b" />
    <stop offset="50%" stop-color="#FFA868" />
    <!-- <stop offset="90%" stop-color="#FBC7C1" /> -->
  </linearGradient>
  </defs>
</svg>
